<svg width="20" height="20" viewBox="0 0 20 20" fill="none" xmlns="http://www.w3.org/2000/svg">
<g clip-path="url(#clip0_5447_702)">
<path d="M6.6665 11.667C6.6665 11.667 7.9165 13.3337 9.99984 13.3337C12.0832 13.3337 13.3332 11.667 13.3332 11.667M14.1665 7.70032C13.8373 8.10449 13.3873 8.33366 12.9165 8.33366C12.4457 8.33366 12.0082 8.10449 11.6665 7.70032M8.33317 7.70032C8.004 8.10449 7.554 8.33366 7.08317 8.33366C6.61234 8.33366 6.17484 8.10449 5.83317 7.70032M18.3332 10.0003C18.3332 14.6027 14.6022 18.3337 9.99984 18.3337C5.39746 18.3337 1.6665 14.6027 1.6665 10.0003C1.6665 5.39795 5.39746 1.66699 9.99984 1.66699C14.6022 1.66699 18.3332 5.39795 18.3332 10.0003Z" stroke="#344054" stroke-width="1.66667" stroke-linecap="round" stroke-linejoin="round"/>
</g>
<defs>
<clipPath id="clip0_5447_702">
<rect width="20" height="20" fill="white"/>
</clipPath>
</defs>
</svg>
