<svg width="16" height="16" viewBox="0 0 16 16" fill="none" xmlns="http://www.w3.org/2000/svg">
<path d="M6 4C6 4.87081 5.44346 5.61164 4.66667 5.88619V6C4.66667 6.7364 5.26362 7.33333 6 7.33333H10C10.7364 7.33333 11.3333 6.7364 11.3333 6V5.88619C10.5565 5.61164 10 4.87081 10 4C10 2.89543 10.8954 2 12 2C13.1046 2 14 2.89543 14 4C14 4.87081 13.4435 5.61164 12.6667 5.88619V6C12.6667 7.47273 11.4727 8.66667 10 8.66667H8.66667V10.1138C9.44347 10.3883 10 11.1292 10 12C10 13.1046 9.1046 14 8 14C6.8954 14 6 13.1046 6 12C6 11.1292 6.55654 10.3883 7.33333 10.1138V8.66667H6C4.52724 8.66667 3.33333 7.47273 3.33333 6V5.88619C2.55654 5.61164 2 4.87081 2 4C2 2.89543 2.89543 2 4 2C5.10457 2 6 2.89543 6 4Z" fill="#404454"/>
<g clip-path="url(#clip0_5047_3076)">
<rect width="7" height="7" transform="translate(8.66669 9)" fill="#F2F3F8"/>
<path d="M12.1669 14.3258L10.1096 15.4774L10.5691 13.165L8.83817 11.5643L11.1794 11.2867L12.1669 9.14581L13.1543 11.2867L15.4955 11.5643L13.7647 13.165L14.2241 15.4774L12.1669 14.3258Z" fill="#404454"/>
</g>
<defs>
<clipPath id="clip0_5047_3076">
<rect width="7" height="7" fill="white" transform="translate(8.66669 9)"/>
</clipPath>
</defs>
</svg>
