<svg width="16" height="16" viewBox="0 0 16 16" fill="none" xmlns="http://www.w3.org/2000/svg">
<path d="M7.99999 9.33335V14.6667H2.66666C2.66666 11.7212 5.05447 9.33335 7.99999 9.33335ZM12 14.3334L10.0407 15.3634L10.4149 13.1817L8.82979 11.6366L11.0203 11.3184L12 9.33335L12.9797 11.3184L15.1702 11.6366L13.5851 13.1817L13.9593 15.3634L12 14.3334ZM7.99999 8.66669C5.78999 8.66669 3.99999 6.87669 3.99999 4.66669C3.99999 2.45669 5.78999 0.666687 7.99999 0.666687C10.21 0.666687 12 2.45669 12 4.66669C12 6.87669 10.21 8.66669 7.99999 8.66669Z" fill="#404454"/>
</svg>
